# xmcd CD database file
#
# Track frame offsets:
#	150
#	13002
#	29772
#	54324
#	74894
#	95783
#	114403
#	133608
#	147398
#	170594
#
# Disc length: 2517 seconds
#
# Revision: 1
# Processed by: cddbd v1.5.2PL0 Copyright (c) Steve Scherf et al.
# Submitted via: CDex 1.51
#
DISCID=9909d30a
DTITLE=Mark Wright - Long Walk Home - The Bruce Springsteen Project
DYEAR=2008
DGENRE=Country
TTITLE0=Mark Wright - Fire
TTITLE1=Mark Wright - 57 Channels
TTITLE2=Mark Wright - The Real World
TTITLE3=Mark Wright - All The Way Home
TTITLE4=Mark Wright - The Promise
TTITLE5=Mark Wright - She's The One
TTITLE6=Mark Wright - State Trooper
TTITLE7=Mark Wright - Red Headed Woman
TTITLE8=Mark Wright - Tougher Than The Rest
TTITLE9=Mark Wright - Long Walk Home
EXTD=YEAR: 2008
EXTT0=
EXTT1=
EXTT2=
EXTT3=
EXTT4=
EXTT5=
EXTT6=
EXTT7=
EXTT8=
EXTT9=
PLAYORDER=
